<svg width="154" height="16" viewBox="0 0 154 16" fill="none" xmlns="http://www.w3.org/2000/svg">
<path d="M7.373 0.265193C8.77936 0.265193 9.99669 0.493554 11.025 0.950276C12.0684 1.407 12.8699 2.05525 13.4294 2.89503C13.9889 3.73481 14.2687 4.72928 14.2687 5.87845C14.2687 7.01289 13.9889 8.00737 13.4294 8.86188C12.8699 9.70166 12.0684 10.3499 11.025 10.8066C9.99669 11.2486 8.77936 11.4696 7.373 11.4696H4.17468V15.7348H0.5V0.265193H7.373ZM7.16886 8.55249C8.27277 8.55249 9.11205 8.32413 9.68669 7.8674C10.2613 7.39595 10.5486 6.73296 10.5486 5.87845C10.5486 5.00921 10.2613 4.34623 9.68669 3.8895C9.11205 3.41805 8.27277 3.18232 7.16886 3.18232H4.17468V8.55249H7.16886Z" fill="white" fill-opacity="0.5"/>
<path d="M27.4625 15.7348L24.4003 11.4254H24.2188H21.0205V15.7348H17.3458V0.265193H24.2188C25.6252 0.265193 26.8425 0.493554 27.8708 0.950276C28.9142 1.407 29.7157 2.05525 30.2752 2.89503C30.8347 3.73481 31.1145 4.72928 31.1145 5.87845C31.1145 7.02762 30.8272 8.0221 30.2525 8.86188C29.693 9.68692 28.8915 10.3204 27.8481 10.7624L31.4094 15.7348H27.4625ZM27.3945 5.87845C27.3945 5.00921 27.1071 4.34623 26.5325 3.8895C25.9579 3.41805 25.1186 3.18232 24.0147 3.18232H21.0205V8.57459H24.0147C25.1186 8.57459 25.9579 8.33886 26.5325 7.8674C27.1071 7.39595 27.3945 6.73296 27.3945 5.87845Z" fill="white" fill-opacity="0.5"/>
<path d="M42.1692 16C40.5209 16 39.0313 15.6538 37.7006 14.9613C36.385 14.2689 35.3491 13.3186 34.593 12.1105C33.852 10.8877 33.4815 9.5175 33.4815 8C33.4815 6.4825 33.852 5.11971 34.593 3.9116C35.3491 2.68877 36.385 1.73112 37.7006 1.03867C39.0313 0.346225 40.5209 0 42.1692 0C43.8175 0 45.2995 0.346225 46.6151 1.03867C47.9307 1.73112 48.9666 2.68877 49.7227 3.9116C50.4788 5.11971 50.8568 6.4825 50.8568 8C50.8568 9.5175 50.4788 10.8877 49.7227 12.1105C48.9666 13.3186 47.9307 14.2689 46.6151 14.9613C45.2995 15.6538 43.8175 16 42.1692 16ZM42.1692 12.9503C43.1068 12.9503 43.9536 12.744 44.7097 12.3315C45.4658 11.9042 46.0556 11.3149 46.479 10.5635C46.9175 9.81215 47.1368 8.95764 47.1368 8C47.1368 7.04236 46.9175 6.18785 46.479 5.43646C46.0556 4.68508 45.4658 4.10313 44.7097 3.69061C43.9536 3.26335 43.1068 3.04972 42.1692 3.04972C41.2316 3.04972 40.3848 3.26335 39.6287 3.69061C38.8726 4.10313 38.2752 4.68508 37.8367 5.43646C37.4133 6.18785 37.2016 7.04236 37.2016 8C37.2016 8.95764 37.4133 9.81215 37.8367 10.5635C38.2752 11.3149 38.8726 11.9042 39.6287 12.3315C40.3848 12.744 41.2316 12.9503 42.1692 12.9503Z" fill="white" fill-opacity="0.5"/>
<path d="M60.9452 0.265193C62.3515 0.265193 63.5689 0.493554 64.5972 0.950276C65.6406 1.407 66.4421 2.05525 67.0016 2.89503C67.5611 3.73481 67.8409 4.72928 67.8409 5.87845C67.8409 7.01289 67.5611 8.00737 67.0016 8.86188C66.4421 9.70166 65.6406 10.3499 64.5972 10.8066C63.5689 11.2486 62.3515 11.4696 60.9452 11.4696H57.7469V15.7348H54.0722V0.265193H60.9452ZM60.741 8.55249C61.8449 8.55249 62.6842 8.32413 63.2589 7.8674C63.8335 7.39595 64.1208 6.73296 64.1208 5.87845C64.1208 5.00921 63.8335 4.34623 63.2589 3.8895C62.6842 3.41805 61.8449 3.18232 60.741 3.18232H57.7469V8.55249H60.741Z" fill="white" fill-opacity="0.5"/>
<path d="M83.2123 12.8619V15.7348H70.918V0.265193H82.9174V3.13812H74.57V6.49724H81.942V9.28177H74.57V12.8619H83.2123Z" fill="white" fill-opacity="0.5"/>
<path d="M96.7065 15.7348L93.6442 11.4254H93.4628H90.2644V15.7348H86.5898V0.265193H93.4628C94.8691 0.265193 96.0864 0.493554 97.1148 0.950276C98.1582 1.407 98.9597 2.05525 99.5192 2.89503C100.079 3.73481 100.358 4.72928 100.358 5.87845C100.358 7.02762 100.071 8.0221 99.4965 8.86188C98.937 9.68692 98.1355 10.3204 97.0921 10.7624L100.653 15.7348H96.7065ZM96.6384 5.87845C96.6384 5.00921 96.3511 4.34623 95.7764 3.8895C95.2018 3.41805 94.3625 3.18232 93.2586 3.18232H90.2644V8.57459H93.2586C94.3625 8.57459 95.2018 8.33886 95.7764 7.8674C96.3511 7.39595 96.6384 6.73296 96.6384 5.87845Z" fill="white" fill-opacity="0.5"/>
<path d="M106.791 3.18232H101.71V0.265193H115.547V3.18232H110.466V15.7348H106.791V3.18232Z" fill="white" fill-opacity="0.5"/>
<path d="M117.978 0.265193H121.652V15.7348H117.978V0.265193Z" fill="white" fill-opacity="0.5"/>
<path d="M138.168 12.8619V15.7348H125.874V0.265193H137.874V3.13812H129.526V6.49724H136.898V9.28177H129.526V12.8619H138.168Z" fill="white" fill-opacity="0.5"/>
<path d="M146.763 16C145.508 16 144.291 15.8379 143.111 15.5138C141.947 15.175 141.009 14.7403 140.298 14.2099L141.546 11.5138C142.226 12 143.035 12.3904 143.973 12.6851C144.911 12.9797 145.848 13.1271 146.786 13.1271C147.829 13.1271 148.6 12.9797 149.099 12.6851C149.598 12.3757 149.848 11.9705 149.848 11.4696C149.848 11.1013 149.697 10.7993 149.394 10.5635C149.107 10.3131 148.729 10.1142 148.26 9.96685C147.807 9.81952 147.187 9.65746 146.4 9.48066C145.19 9.20074 144.2 8.92081 143.429 8.64088C142.657 8.36096 141.992 7.9116 141.433 7.29282C140.888 6.67403 140.616 5.84899 140.616 4.81768C140.616 3.91897 140.865 3.10866 141.365 2.38674C141.864 1.65009 142.612 1.06814 143.61 0.640884C144.623 0.213628 145.856 0 147.307 0C148.321 0 149.311 0.117864 150.279 0.353591C151.247 0.589319 152.094 0.928177 152.82 1.37017L151.685 4.0884C150.219 3.27808 148.752 2.87293 147.285 2.87293C146.257 2.87293 145.493 3.03499 144.994 3.35912C144.51 3.68324 144.268 4.1105 144.268 4.64088C144.268 5.17127 144.548 5.56906 145.107 5.83425C145.682 6.08471 146.551 6.33518 147.716 6.58564C148.926 6.86556 149.916 7.14549 150.687 7.42541C151.459 7.70534 152.116 8.14733 152.661 8.75138C153.22 9.35543 153.5 10.1731 153.5 11.2044C153.5 12.0884 153.243 12.8987 152.729 13.6354C152.23 14.3573 151.474 14.9319 150.46 15.3591C149.447 15.7864 148.215 16 146.763 16Z" fill="white" fill-opacity="0.5"/>
</svg>

