<svg width="92" height="16" viewBox="0 0 92 16" fill="none" xmlns="http://www.w3.org/2000/svg">
<path d="M7.24951 16C4.9626 16 3.17881 15.3783 1.89814 14.1348C0.632712 12.8914 0 11.1161 0 8.80899V0H3.7048V8.67416C3.7048 11.4906 4.89399 12.8989 7.27238 12.8989C8.43109 12.8989 9.31536 12.5618 9.9252 11.8876C10.535 11.1985 10.84 10.1273 10.84 8.67416V0H14.499V8.80899C14.499 11.1161 13.8587 12.8914 12.578 14.1348C11.3126 15.3783 9.53643 16 7.24951 16Z" fill="white"/>
<path d="M33.2994 0V15.7303H30.2578L22.2765 6.17978V15.7303H18.6174V0H21.6819L29.6404 9.55056V0H33.2994Z" fill="white"/>
<path d="M37.5443 0H41.2491V15.7303H37.5443V0Z" fill="white"/>
<path d="M48.8217 2.96629H43.699V0H57.6491V2.96629H52.5265V15.7303H48.8217V2.96629Z" fill="white"/>
<path d="M72.495 12.809V15.7303H60.0999V0H72.1977V2.92135H63.7818V6.33708H71.2143V9.16854H63.7818V12.809H72.495Z" fill="white"/>
<path d="M75.9001 0H83.1725C84.9106 0 86.4428 0.329588 87.7692 0.988765C89.1109 1.63296 90.1476 2.54682 90.8794 3.73034C91.6265 4.91386 92 6.29214 92 7.86517C92 9.4382 91.6265 10.8165 90.8794 12C90.1476 13.1835 89.1109 14.1049 87.7692 14.764C86.4428 15.4082 84.9106 15.7303 83.1725 15.7303H75.9001V0ZM82.9896 12.7416C84.5904 12.7416 85.8635 12.3071 86.8087 11.4382C87.7692 10.5543 88.2495 9.3633 88.2495 7.86517C88.2495 6.36704 87.7692 5.18352 86.8087 4.31461C85.8635 3.43071 84.5904 2.98876 82.9896 2.98876H79.6049V12.7416H82.9896Z" fill="white"/>
</svg>
